<svg xmlns="http://www.w3.org/2000/svg" viewBox="0 0 96 96" role="img" aria-label="Anne刷服器">
  <defs>
    <linearGradient id="bg" x1="18" y1="10" x2="78" y2="88" gradientUnits="userSpaceOnUse">
      <stop offset="0" stop-color="#162a37"/>
      <stop offset="1" stop-color="#071318"/>
    </linearGradient>
    <linearGradient id="mark" x1="20" y1="18" x2="78" y2="80" gradientUnits="userSpaceOnUse">
      <stop offset="0" stop-color="#7dd3fc"/>
      <stop offset="0.58" stop-color="#2dd4bf"/>
      <stop offset="1" stop-color="#34d399"/>
    </linearGradient>
    <filter id="softGlow" x="-30%" y="-30%" width="160%" height="160%" color-interpolation-filters="sRGB">
      <feDropShadow dx="0" dy="0" stdDeviation="2.8" flood-color="#22d3ee" flood-opacity="0.42"/>
    </filter>
  </defs>
  <rect width="96" height="96" rx="22" fill="url(#bg)"/>
  <path d="M16 72h64" fill="none" stroke="#1f3d47" stroke-width="10" stroke-linecap="round" opacity="0.7"/>
  <path d="M24 72 48 21l24 51M34 51h28" fill="none" stroke="#22d3ee" stroke-width="14" stroke-linecap="round" stroke-linejoin="round" opacity="0.22" filter="url(#softGlow)"/>
  <path d="M24 72 48 21l24 51M34 51h28" fill="none" stroke="url(#mark)" stroke-width="8.8" stroke-linecap="round" stroke-linejoin="round"/>
  <rect x="28" y="61" width="40" height="17" rx="7" fill="#0d2229" stroke="#245463" stroke-width="2"/>
  <path d="M39 69h18" fill="none" stroke="#8eead8" stroke-width="3" stroke-linecap="round"/>
  <circle cx="63" cy="69" r="2.8" fill="#34d399"/>
  <circle cx="48" cy="21" r="5" fill="#e0fbff"/>
  <circle cx="24" cy="72" r="4.2" fill="#67e8f9"/>
  <circle cx="72" cy="72" r="4.2" fill="#86efac"/>
  <path d="M20 29c6-7 16-11 28-11s22 4 28 11" fill="none" stroke="#2dd4bf" stroke-width="3" stroke-linecap="round" opacity="0.28"/>
</svg>
